<?xml version="1.0" standalone="no"?>
<!DOCTYPE svg PUBLIC "-//W3C//DTD SVG 1.1//EN" "http://www.w3.org/Graphics/SVG/1.1/DTD/svg11.dtd" >
<svg xmlns="http://www.w3.org/2000/svg">
<metadata>Generated by IcoMoon</metadata>
<defs>
<font id="icons" horiz-adv-x="1024">
<font-face units-per-em="1024" ascent="960" descent="-64" />
<missing-glyph horiz-adv-x="1024" />
<glyph unicode="&#x20;" horiz-adv-x="512" d="" />
<glyph unicode="&#xe900;" d="M776.32 602.4c0.006 0.689 0.010 1.504 0.010 2.32 0 154.645-125.365 280.010-280.010 280.010-153.829 0-278.686-124.046-279.999-277.565-0.801-98.365 59.199-187.485 135.679-260.765v-29.6c0-35.346 28.654-64 64-64h160c35.346 0 64 28.654 64 64v30.56c76 71.36 135.52 158.88 136.32 255.040z" />
<glyph unicode="&#xe901;" d="M274.88 732c7.177-7.311 17.164-11.842 28.209-11.842 12.256 0 23.209 5.579 30.458 14.336 38.491 47.779 96.916 78.049 162.41 78.049 64.916 0 122.886-29.738 161.030-76.334 7.593-9.090 18.483-14.596 30.659-14.596 11.038 0 21.019 4.525 28.189 11.821l0.006 0.006c7.199 7.256 11.648 17.25 11.648 28.282 0 9.777-3.494 18.737-9.3 25.702-53.162 64.318-133.033 105.036-222.415 105.036-90.108 0-170.55-41.381-223.36-106.177-6.080-7.394-9.517-16.288-9.517-25.985 0-11.041 4.455-21.040 11.666-28.3z" />
<glyph unicode="&#xe902;" d="M528 12.8h-64v48h64v-48z" />
<glyph unicode="&#xe903;" d="M528 60.8h-64c-53.019 0-96 42.981-96 96v96h256v-96c0-53.019-42.981-96-96-96z" />
<glyph unicode="&#xe904;" d="M128 604.8c0 8.837-7.163 16-16 16h-96c-8.837 0-16-7.163-16-16s7.163-16 16-16h96c8.837 0 16 7.163 16 16z" />
<glyph unicode="&#xe905;" d="M976 620.8h-96c-8.837 0-16-7.163-16-16s7.163-16 16-16h96c8.837 0 16 7.163 16 16s-7.163 16-16 16z" />
<glyph unicode="&#xe906;" d="M133.92 475.84l-59.36-24c-6.394-2.193-10.908-8.154-10.908-15.168 0-8.837 7.163-16 16-16 2.511 0 4.888 0.579 7.003 1.61l59.265 23.958c5.422 2.639 9.092 8.107 9.092 14.432 0 8.837-7.163 16-16 16-1.822 0-3.573-0.305-5.204-0.866z" />
<glyph unicode="&#xe907;" d="M852 732.8c0.012 0 0.025 0 0.039 0 2.117 0 4.139 0.411 5.988 1.158l59.253 23.962c5.422 2.639 9.092 8.107 9.092 14.432 0 8.837-7.163 16-16 16-1.822 0-3.573-0.305-5.204-0.866l-59.248-23.966c-5.769-2.502-9.732-8.149-9.732-14.721 0-8.77 7.057-15.893 15.802-15.999z" />
<glyph unicode="&#xe908;" d="M145.92 763.52l-59.36 24c-2.020 0.989-4.397 1.568-6.908 1.568-8.837 0-16-7.163-16-16 0-7.015 4.514-12.975 10.796-15.134l59.472-24.034c1.519-0.527 3.27-0.832 5.092-0.832 8.837 0 16 7.163 16 16 0 6.325-3.67 11.793-8.997 14.39z" />
<glyph unicode="&#xe909;" d="M917.44 451.84l-59.36 24c-2.020 0.989-4.397 1.568-6.908 1.568-8.837 0-16-7.163-16-16 0-7.015 4.514-12.975 10.796-15.134l59.472-24.034c1.519-0.527 3.27-0.832 5.092-0.832 8.837 0 16 7.163 16 16 0 6.325-3.67 11.793-8.997 14.39z" />
<glyph unicode="&#xe90a;" d="M548.64 552.16l-64-64c-2.868-2.891-4.64-6.872-4.64-11.267 0-0.033 0-0.065 0-0.098v-95.995c0-8.837 7.163-16 16-16s16 7.163 16 16v89.44l59.36 59.36c2.391 2.78 3.847 6.423 3.847 10.407 0 8.837-7.163 16-16 16-3.984 0-7.628-1.456-10.428-3.865z" />
<glyph unicode="&#xe90b;" d="M496 908.8c-167.895 0-304-136.105-304-304 0-80 44.48-139.040 87.52-196.48 34.4-46.080 66.88-89.76 72.48-139.52v0-112c0.068-56.156 41.454-102.626 95.387-110.645l0.613-17.355c0-17.673 14.327-32 32-32h32c17.673 0 32 14.327 32 32v17.28c54.546 8.094 95.932 54.564 96 110.713v97.607c0 56 35.52 103.52 73.12 153.92 42.72 57.44 86.88 116.48 86.88 196.48 0 167.895-136.105 304-304 304zM384 236.8h224v-17.92l-224-28zM512 28.8h-32v16h32zM528 76.8h-64c-44.183 0-80 35.817-80 80v1.92l224 28v-29.92s0-1.28 0-1.92l-162.72-20.32c-8.43-0.521-15.069-7.485-15.069-16 0-8.852 7.176-16.029 16.029-16.029 0.338 0 0.673 0.010 1.006 0.031l2.034-0.002 150.24 18.72c-13.356-26.523-40.341-44.415-71.511-44.48zM688 427.36c-35.84-48-72.96-98.080-78.72-157.6h-97.28v47.040c0 8.837-7.163 16-16 16s-16-7.163-16-16v-47.040h-96c-5.76 59.68-43.040 109.44-80 157.76-38.72 53.28-80 108.32-80 177.28 0 150.221 121.779 272 272 272s272-121.779 272-272c0-68.96-40.96-124.16-80-177.44z" />
<glyph unicode="&#xe90c;" d="M475.36 520.16l-32 32c-2.78 2.391-6.423 3.847-10.407 3.847-8.837 0-16-7.163-16-16 0-3.984 1.456-7.628 3.865-10.428l31.982-31.979c2.78-2.391 6.423-3.847 10.407-3.847 8.837 0 16 7.163 16 16 0 3.984-1.456 7.628-3.865 10.428z" />
<glyph unicode="&#xe90d;" d="M611.68 796.8c-1.802 0.764-3.898 1.207-6.097 1.207-8.837 0-16-7.163-16-16 0-5.082 2.37-9.611 6.064-12.542 13.849-8.469 25.81-17.936 36.509-28.661 2.577-1.848 5.789-2.952 9.259-2.952 8.837 0 16 7.163 16 16 0 3.51-1.13 6.757-3.047 9.395-12.499 12.55-26.506 23.656-41.714 32.998z" />
<glyph unicode="&#xe90e;" d="M530.88 793.6c0.866-0.164 1.862-0.257 2.88-0.257 8.979 0 16.257 7.279 16.257 16.257 0 7.961-5.722 14.585-13.277 15.985-12.204 2.345-26.124 3.678-40.355 3.678-45.986 0-88.722-13.917-124.225-37.769-3.68-2.425-6.599-7.418-6.599-13.094 0-8.946 7.252-16.199 16.199-16.199 3.271 0 6.315 0.969 8.862 2.637 29.753 19.948 66.443 31.859 105.914 31.859 12.14 0 24.018-1.127 35.533-3.282z" />
<glyph unicode="&#xe90f;" glyph-name="bulb" d="M496 908.8c-167.632 0-304-136.368-304-304 0-79.568 44.522-138.996 87.562-196.5 34.4-45.968 66.774-89.692 72.438-139.5v-112c0-56.304 41.808-102.911 96-110.719v-17.281c0-17.648 14.352-32 32-32h32c17.648 0 32 14.352 32 32v17.281c54.192 7.808 96 54.415 96 110.719v97.625c0.256 55.936 35.575 103.507 73.031 153.875 42.752 57.488 86.969 116.932 86.969 196.5 0 167.632-136.368 304-304 304zM496 876.8c149.984 0 272-122.016 272-272 0-68.976-40.977-124.094-80.625-177.406-35.888-48.256-72.896-97.994-78.656-157.594l-96.719-0.031v47.031c0 8.832-7.168 16-16 16s-16-7.168-16-16v-47.062l-95.594-0.031c-5.792 59.68-43.090 109.493-79.25 157.781-39.904 53.296-81.156 108.384-81.156 177.312 0 149.984 122.016 272 272 272zM493.844 828.862c-42.757-0.346-84.548-12.925-120.812-36.781-7.376-4.864-9.41-14.78-4.562-22.156 3.072-4.672 8.175-7.219 13.375-7.219 3.008 0 6.061 0.864 8.781 2.656 41.424 27.232 91.241 37.258 140.313 28.25 8.72-1.552 17.056 4.172 18.656 12.844 1.6 8.688-4.156 17.009-12.844 18.625-14.304 2.636-28.654 3.897-42.906 3.781zM605.781 798.769c-6.174 0.892-12.58-1.886-16-7.562-4.576-7.568-2.13-17.393 5.438-21.969 13.216-7.984 25.506-17.648 36.562-28.688 3.12-3.12 7.216-4.688 11.312-4.688s8.193 1.568 11.313 4.688c6.256 6.256 6.256 16.369 0 22.625-12.88 12.88-27.248 24.125-42.656 33.437-1.892 1.144-3.911 1.859-5.969 2.156zM80.375 788.612c-6.235-0.105-12.11-3.856-14.594-10-3.312-8.192 0.652-17.532 8.844-20.844l59.344-23.969c1.968-0.784 3.985-1.156 5.969-1.156 6.336 0 12.363 3.776 14.875 10 3.312 8.192-0.683 17.532-8.875 20.844l-59.313 23.969c-2.048 0.824-4.172 1.191-6.25 1.156zM911.625 788.612c-2.079 0.036-4.198-0.336-6.25-1.156l-59.313-23.969c-8.192-3.312-12.187-12.652-8.875-20.844 2.512-6.224 8.539-10 14.875-10 2 0 4.001 0.372 5.969 1.156l59.344 23.969c8.192 3.312 12.156 12.652 8.844 20.844-2.484 6.144-8.357 9.893-14.594 10zM16 620.8c-8.832 0-16-7.168-16-16s7.168-16 16-16h96c8.832 0 16 7.168 16 16s-7.168 16-16 16h-96zM880 620.8c-8.832 0-16-7.168-16-16s7.168-16 16-16h96c8.832 0 16 7.168 16 16s-7.168 16-16 16h-96zM432 556.8c-4.092 0-8.184-1.56-11.312-4.688-6.256-6.256-6.256-16.369 0-22.625l32-32c3.12-3.12 7.216-4.688 11.312-4.688s8.192 1.568 11.312 4.688c6.256 6.256 6.256 16.369 0 22.625l-32 32c-3.128 3.128-7.22 4.688-11.312 4.688zM560 556.8c-4.092 0-8.184-1.56-11.312-4.688l-64-64c-3.008-2.992-4.688-7.072-4.688-11.312v-96c0-8.832 7.168-16 16-16s16 7.168 16 16v89.375l59.312 59.312c6.256 6.256 6.256 16.369 0 22.625-3.128 3.128-7.22 4.688-11.312 4.688zM140.219 476.956c-2.080 0.036-4.198-0.336-6.25-1.156l-59.344-23.969c-8.192-3.312-12.156-12.652-8.844-20.844 2.512-6.24 8.508-10 14.844-10 2 0 4.032 0.372 6 1.156l59.313 23.969c8.192 3.312 12.187 12.652 8.875 20.844-2.472 6.144-8.353 9.893-14.594 10zM851.781 476.925c-6.235-0.105-12.11-3.856-14.594-10-3.312-8.192 0.683-17.532 8.875-20.844l59.313-23.969c1.968-0.784 4.016-1.156 6-1.156 6.336 0 12.332 3.807 14.844 10.031 3.312 8.208-0.636 17.5-8.844 20.812l-59.344 23.969c-2.048 0.824-4.172 1.191-6.25 1.156zM384 236.8h224v-17.875l-224-28v45.875zM608 186.675v-29.875c0-0.656-0.172-1.25-0.188-1.906l-162.469-20.312c-8.768-1.088-14.979-9.076-13.875-17.844 1.008-8.096 7.892-14.031 15.844-14.031 0.672 0 1.328 0.060 2 0.156l150.156 18.75c-13.056-26.432-40.045-44.812-71.469-44.812h-64c-44.112 0-80 35.888-80 80v1.875l224 28zM480 44.8h32v-16h-32v16z" />
<glyph unicode="&#xe927;" d="M720 297.28v39.040c0.004 0.139 0.007 0.302 0.007 0.466 0 7.476-5.127 13.754-12.056 15.51l-81.551 20.344c-5.662 1.488-10.032 5.858-11.495 11.408-6.275 23.163-14.804 43.317-25.637 61.967-0.696 1.080-1.492 3.839-1.492 6.785s0.796 5.705 2.184 8.076l43.159 72.084c1.428 2.347 2.273 5.185 2.273 8.22 0 4.412-1.785 8.406-4.673 11.301l-27.52 27.52c-2.894 2.887-6.889 4.673-11.3 4.673-3.035 0-5.873-0.845-8.291-2.313l-71.609-43.64c-2.295-1.348-5.054-2.144-8-2.144s-5.705 0.796-8.076 2.184c-17.312 10.182-37.406 18.76-58.618 24.655-7.448 1.912-11.819 6.282-13.282 11.832l-20.345 81.552c-1.78 7.040-8.058 12.167-15.534 12.167-0.164 0-0.327-0.002-0.49-0.007l-39.176 0.001c-0.139 0.004-0.302 0.007-0.466 0.007-7.476 0-13.754-5.127-15.51-12.056l-20.344-81.551c-1.488-5.662-5.858-10.032-11.408-11.495-23.167-6.327-43.317-14.908-61.955-25.795-1.091-0.698-3.851-1.494-6.796-1.494s-5.705 0.796-8.076 2.184l-72.084 43.159c-2.347 1.428-5.185 2.273-8.22 2.273-4.412 0-8.406-1.785-11.301-4.673l-27.040-27.68c-2.887-2.894-4.673-6.889-4.673-11.3 0-3.035 0.845-5.873 2.313-8.291l43.16-71.449c1.348-2.295 2.144-5.054 2.144-8s-0.796-5.705-2.184-8.076c-10.182-17.312-18.76-37.406-24.655-58.618-1.912-7.448-6.282-11.819-11.832-13.282l-81.392-20.985c-7.040-1.78-12.167-8.058-12.167-15.534 0-0.164 0.002-0.327 0.007-0.49l-0.001-39.016c-0.004-0.139-0.007-0.302-0.007-0.466 0-7.476 5.127-13.754 12.056-15.51l81.551-20.344c5.662-1.488 10.032-5.858 11.495-11.408 6.319-22.991 14.842-42.978 25.635-61.478 0.697-1.088 1.493-3.848 1.493-6.793s-0.796-5.705-2.184-8.076l-43.159-72.084c-1.428-2.347-2.273-5.185-2.273-8.22 0-4.412 1.785-8.406 4.673-11.301l27.52-27.52c2.894-2.887 6.889-4.673 11.3-4.673 3.035 0 5.873 0.845 8.291 2.313l71.609 43.64c2.295 1.348 5.054 2.144 8 2.144s5.705-0.796 8.076-2.184c17.312-10.182 37.406-18.76 58.618-24.655 7.448-1.912 11.819-6.282 13.282-11.832l20.345-81.552c1.78-7.040 8.058-12.167 15.534-12.167 0.164 0 0.327 0.002 0.49 0.007l39.016-0.001c0.139-0.004 0.302-0.007 0.466-0.007 7.476 0 13.754 5.127 15.51 12.056l20.344 81.551c1.488 5.662 5.858 10.032 11.408 11.495 23.224 6.315 43.43 14.897 62.119 25.795 1.087 0.697 3.847 1.493 6.793 1.493s5.705-0.796 8.076-2.184l72.084-43.159c2.347-1.428 5.185-2.273 8.22-2.273 4.412 0 8.406 1.785 11.301 4.673l27.52 27.52c2.887 2.894 4.673 6.889 4.673 11.3 0 3.035-0.845 5.873-2.313 8.291l-43.64 71.609c-1.348 2.295-2.144 5.054-2.144 8s0.796 5.705 2.184 8.076c10.182 17.312 18.76 37.406 24.655 58.618 1.912 7.448 6.282 11.819 11.832 13.282l81.552 20.345c6.963 1.835 12.014 8.075 12.014 15.495 0 0.234-0.005 0.466-0.015 0.698z" />
<glyph unicode="&#xe928;" d="M544 316.8c0-97.202-78.798-176-176-176s-176 78.798-176 176c0 97.202 78.798 176 176 176s176-78.798 176-176z" />
<glyph unicode="&#xe929;" d="M997.76 801.92l-12 29.6-66.88-12.64c-12.161 18.954-27.602 34.701-45.669 46.839l13.189 67.081-29.44 12.48-38.4-56.16c-10.338 2.393-22.21 3.765-34.402 3.765-11.385 0-22.491-1.196-33.199-3.47l-36.080 57.145-29.6-12 12.64-66.88c-18.954-12.161-34.701-27.602-46.839-45.669l-67.081 13.029-12.48-29.44 56.16-38.4c-2.206-9.931-3.47-21.338-3.47-33.040s1.264-23.109 3.662-34.091l-57.153-36.389 12-29.6 66.88 12.64c12.161-18.954 27.602-34.701 45.669-46.839l-13.189-67.081 29.44-12.48 38.4 56.16c9.931-2.206 21.338-3.47 33.040-3.47s23.109 1.264 34.091 3.662l36.389-57.153 29.6 12-12.64 66.88c18.954 12.161 34.701 27.602 46.839 45.669l67.081-13.189 12.48 29.44-56.16 38.4c2.206 9.931 3.47 21.338 3.47 33.040s-1.264 23.109-3.662 34.091z" />
<glyph unicode="&#xe92a;" d="M864 732.8c0-44.183-35.817-80-80-80s-80 35.817-80 80c0 44.183 35.817 80 80 80s80-35.817 80-80z" />
<glyph unicode="&#xe92b;" d="M464 316.8c0-53.019-42.981-96-96-96s-96 42.981-96 96c0 53.019 42.981 96 96 96s96-42.981 96-96z" />
<glyph unicode="&#xe92c;" d="M492.8 464.64c-2.699 2.147-6.158 3.445-9.92 3.445-8.839 0-16.005-7.166-16.005-16.005 0-5.078 2.364-9.603 6.052-12.535 8.515-6.77 16.052-13.951 22.904-21.749 3.085-3.228 7.176-5.112 11.708-5.112 8.837 0 16 7.163 16 16 0 3.814-1.335 7.317-3.563 10.066-8.268 9.423-17.165 17.915-26.761 25.57z" />
<glyph unicode="&#xe92d;" d="M304 466.72c0.036 0 0.079 0 0.123 0 1.787 0 3.506 0.293 5.11 0.833 16.384 5.646 35.392 8.925 55.167 8.925s38.784-3.279 56.513-9.323c0.272-0.151 2.005-0.449 3.807-0.449 8.844 0 16.014 7.17 16.014 16.014 0 7.041-4.545 13.022-10.861 15.167-19.644 6.73-42.147 10.596-65.553 10.596s-45.909-3.866-66.905-10.994c-4.98-1.732-9.54-7.718-9.54-14.769 0-8.837 7.163-16 16-16 0.044 0 0.088 0 0.132 0.001z" />
<glyph unicode="&#xe92e;" d="M241.12 217.6l-20.64-20.64c-2.873-2.893-4.649-6.879-4.649-11.28 0-8.842 7.167-16.009 16.009-16.009 4.441 0 8.459 1.808 11.359 4.728l20.641 20.641c2.391 2.78 3.847 6.423 3.847 10.407 0 8.837-7.163 16-16 16-3.984 0-7.628-1.456-10.428-3.865z" />
<glyph unicode="&#xe92f;" d="M232.96 263.2c-2.5 5.776-8.15 9.744-14.726 9.744-2.251 0-4.394-0.465-6.337-1.304l-26.616-11.32c-6.090-2.354-10.331-8.163-10.331-14.962 0-8.837 7.163-16 16-16 2.473 0 4.816 0.561 6.907 1.563l26.144 11.318c5.996 2.4 10.154 8.161 10.154 14.894 0 2.188-0.439 4.272-1.234 6.172z" />
<glyph unicode="&#xe930;" d="M176 300.8h29.12c8.837 0 16 7.163 16 16s-7.163 16-16 16h-29.12c-8.837 0-16-7.163-16-16s7.163-16 16-16z" />
<glyph unicode="&#xe931;" d="M183.2 372.48l27.2-10.4c1.709-0.678 3.688-1.071 5.76-1.071 8.853 0 16.031 7.177 16.031 16.031 0 6.782-4.211 12.58-10.162 14.922l-27.309 10.438c-1.709 0.678-3.688 1.071-5.76 1.071-8.853 0-16.031-7.177-16.031-16.031 0-6.782 4.211-12.58 10.162-14.922z" />
<glyph unicode="&#xe932;" d="M368 428.8c-61.856 0-112-50.144-112-112s50.144-112 112-112c61.856 0 112 50.144 112 112s-50.144 112-112 112zM368 236.8c-44.183 0-80 35.817-80 80s35.817 80 80 80c44.183 0 80-35.817 80-80s-35.817-80-80-80z" />
<glyph unicode="&#xe933;" d="M400 316.8c0-17.673-14.327-32-32-32s-32 14.327-32 32c0 17.673 14.327 32 32 32s32-14.327 32-32z" />
<glyph unicode="&#xe934;" d="M784 828.8c-53.019 0-96-42.981-96-96s42.981-96 96-96c53.019 0 96 42.981 96 96s-42.981 96-96 96zM784 664.96c-37.467 0-67.84 30.373-67.84 67.84s30.373 67.84 67.84 67.84c37.467 0 67.84-30.373 67.84-67.84-0.091-37.43-30.41-67.749-67.831-67.84z" />
<glyph unicode="&#xe935;" d="M816 732.8c0-17.673-14.327-32-32-32s-32 14.327-32 32c0 17.673 14.327 32 32 32s32-14.327 32-32z" />
<glyph unicode="&#xe936;" d="M711.84 367.36l-81.44 20.48c-6.729 24.332-15.907 45.595-27.551 65.222l44.031 71.738c2.855 4.694 4.546 10.369 4.546 16.44 0 8.823-3.571 16.812-9.346 22.601l-27.679 27.039c-5.788 5.775-13.777 9.346-22.6 9.346-6.070 0-11.746-1.69-16.582-4.626l-71.858-42.96c-18.405 10.866-39.676 19.941-62.144 26.124l-22.176 81.876c-3.622 13.994-16.136 24.164-31.026 24.164-0.174 0-0.347-0.001-0.52-0.004h-39.014c-0.005 0-0.010 0-0.015 0-14.888 0-27.402-10.167-30.976-23.938l-20.529-81.662c-24.332-6.729-45.595-15.907-65.222-27.551l-71.738 44.031c-4.694 2.855-10.369 4.546-16.44 4.546-8.823 0-16.812-3.571-22.601-9.346l-27.039-27.679c-5.634-5.763-9.11-13.656-9.11-22.361 0-5.907 1.6-11.44 4.391-16.189l42.958-71.85c-10.866-18.405-19.941-39.676-26.124-62.144l-81.876-23.296c-13.993-3.623-24.16-16.136-24.16-31.025 0-0.005 0-0.011 0-0.016v-39.039c0-0.005 0-0.010 0-0.015 0-14.888 10.167-27.402 23.938-30.976l81.662-20.529c6.729-24.332 15.907-45.595 27.551-65.222l-44.031-71.738c-2.855-4.694-4.546-10.369-4.546-16.44 0-8.823 3.571-16.812 9.346-22.601l27.679-27.039c5.788-5.775 13.777-9.346 22.6-9.346 6.070 0 11.746 1.69 16.582 4.626l71.858 42.96c18.405-10.866 39.676-19.941 62.144-26.124l22.176-81.876c3.622-13.994 16.136-24.164 31.026-24.164 0.174 0 0.347 0.001 0.52 0.004h39.014c0.005 0 0.010 0 0.015 0 14.888 0 27.402 10.167 30.976 23.938l20.529 81.662c24.332 6.729 45.595 15.907 65.222 27.551l71.738-44.031c4.694-2.855 10.369-4.546 16.44-4.546 8.823 0 16.812 3.571 22.601 9.346l27.519 27.519c5.775 5.788 9.346 13.777 9.346 22.6 0 6.070-1.69 11.746-4.626 16.582l-42.96 71.858c10.866 18.405 19.941 39.676 26.124 62.144l81.876 22.176c13.754 3.788 23.689 16.185 23.689 30.902 0 0.274-0.003 0.546-0.010 0.818l0.001 39c0 0.005 0 0.010 0 0.015 0 14.888-10.167 27.402-23.938 30.976zM704 297.28l-81.44-20.32c-11.287-2.949-20.014-11.622-22.989-22.656-5.972-21.762-14.003-40.581-24.181-57.992-2.086-3.462-3.678-8.981-3.678-14.872s1.592-11.41 4.369-16.151l43.278-72.489-27.36-27.36-72.32 43.36c-4.59 2.695-10.109 4.287-16 4.287s-11.41-1.592-16.151-4.369c-16.132-9.483-34.95-17.514-54.812-23.040-12.869-3.474-21.476-12.187-24.348-23.216l-20.849-81.663h-39.040l-20.32 81.44c-2.921 11.251-11.529 19.964-22.495 22.987-21.822 5.965-40.695 13.997-58.159 24.184-3.453 2.095-8.971 3.698-14.863 3.709-5.915-0.063-11.428-1.72-16.147-4.561l-72.496-43.119-27.36 27.36 43.2 72c2.695 4.59 4.287 10.109 4.287 16s-1.592 11.41-4.369 16.151c-9.481 16.131-17.512 34.949-23.039 54.81-3.425 12.936-12.152 21.61-23.216 24.509l-81.503 21.010v39.040l81.44 20.32c11.251 2.921 19.964 11.529 22.987 22.495 5.965 21.822 13.997 40.695 24.184 58.159 2.084 3.456 3.676 8.975 3.676 14.866s-1.592 11.41-4.369 16.151l-43.278 72.489 27.36 27.36 72-43.2c4.59-2.695 10.109-4.287 16-4.287s11.41 1.592 16.151 4.369c16.131 9.481 34.949 17.512 54.81 23.039 12.936 3.425 21.61 12.152 24.509 23.216l21.010 81.503h39.040l20.32-81.44c2.949-11.287 11.622-20.014 22.656-22.989 21.763-5.974 40.581-14.005 57.993-24.181 3.461-2.086 8.98-3.678 14.871-3.678s11.41 1.592 16.151 4.369l72.489 43.278 27.36-27.36-43.36-72.32c-2.695-4.59-4.287-10.109-4.287-16s1.592-11.41 4.369-16.151c9.483-16.132 17.514-34.95 23.040-54.812 3.474-12.869 12.187-21.476 23.216-24.348l81.663-20.849z" />
<glyph unicode="&#xe937;" d="M1005.44 673.28l-48 32c1.21 7.694 1.901 16.566 1.901 25.6s-0.691 17.906-2.024 26.567l48.122 31.033c4.385 2.901 7.237 7.811 7.237 13.387 0 2.152-0.425 4.205-1.196 6.080l-11.961 29.493c-2.432 5.929-8.159 10.028-14.844 10.028-1.031 0-2.039-0.098-3.016-0.284l-56.54-10.704c-10.252 14.001-22.076 26.028-35.413 36.168l11.253 56.792c0.204 0.958 0.321 2.059 0.321 3.187 0 6.583-3.976 12.237-9.657 14.693l-28.584 12.68c-1.848 0.808-4.002 1.278-6.266 1.278-5.492 0-10.338-2.767-13.219-6.983l-32.035-48.055c-7.694 1.21-16.566 1.901-25.6 1.901s-17.906-0.691-26.567-2.024l-31.033 48.122c-2.816 4.824-7.968 8.013-13.864 8.013-1.972 0-3.862-0.357-5.606-1.010l-29.49-11.964c-5.929-2.432-10.028-8.159-10.028-14.844 0-1.031 0.098-2.039 0.284-3.016l10.704-56.54c-13.998-10.256-26.025-22.079-36.168-35.413l-56.792 11.253c-0.958 0.204-2.059 0.321-3.187 0.321-6.583 0-12.237-3.976-14.693-9.657l-12.52-29.544c-0.808-1.848-1.278-4.002-1.278-6.266 0-5.492 2.767-10.338 6.983-13.219l48.055-32.035c-1.211-7.694-1.903-16.566-1.903-25.6s0.692-17.906 2.026-26.567l-48.123-31.033c-4.385-2.901-7.237-7.811-7.237-13.387 0-2.152 0.425-4.205 1.196-6.080l11.961-29.493c2.432-5.929 8.159-10.028 14.844-10.028 1.031 0 2.039 0.098 3.016 0.284l56.54 10.704c10.252-14.001 22.076-26.028 35.413-36.168l-11.253-56.792c-0.204-0.958-0.321-2.059-0.321-3.187 0-6.583 3.976-12.237 9.657-14.693l29.544-12.52c1.848-0.808 4.002-1.278 6.266-1.278 5.492 0 10.338 2.767 13.219 6.983l32.035 48.055c7.693-1.206 16.566-1.894 25.6-1.894s17.906 0.689 26.569 2.017l31.031-48.122c2.901-4.385 7.811-7.237 13.387-7.237 2.152 0 4.205 0.425 6.080 1.196l29.493 11.961c5.929 2.432 10.028 8.159 10.028 14.844 0 1.031-0.098 2.039-0.284 3.016l-10.704 56.54c14.001 10.252 26.028 22.076 36.168 35.413l56.792-11.253c0.958-0.204 2.059-0.321 3.187-0.321 6.583 0 12.237 3.976 14.693 9.657l12.52 29.544c0.479 1.452 0.756 3.124 0.756 4.86 0 5.676-2.955 10.661-7.411 13.502zM974.4 648.8l-53.76 11.2c-0.811 0.146-1.745 0.229-2.698 0.229-5.522 0-10.391-2.797-13.266-7.052-11.249-16.833-25.397-30.726-41.871-41.316-4.959-3.24-7.818-8.155-7.818-13.738 0-0.919 0.078-1.82 0.226-2.697l8.787-54.626-5.28-2.080-30.24 45.92c-2.708 4.196-7.232 7.019-12.433 7.358l-3.247 0.002c-8.921-1.991-19.167-3.131-29.68-3.131s-20.759 1.14-30.622 3.304c0.072-0.006-0.928 0.090-1.951 0.090-5.401 0-10.176-2.676-13.073-6.774l-32.034-44.69-5.28 2.24 11.2 53.76c0.146 0.811 0.229 1.745 0.229 2.698 0 5.522-2.797 10.391-7.052 13.266-16.833 11.249-30.726 25.397-41.316 41.871-3.24 4.959-8.155 7.818-13.738 7.818-0.919 0-1.82-0.078-2.697-0.226l-54.786-9.427-2.080 5.28 45.92 30.24c4.312 2.912 7.109 7.78 7.109 13.302 0 0.953-0.083 1.887-0.243 2.794-1.987 8.849-3.134 19.122-3.134 29.664s1.147 20.815 3.322 30.703c-0.006-0.073 0.090 0.928 0.090 1.95 0 5.401-2.676 10.176-6.774 13.073l-44.21 31.554 2.24 5.28 53.76-11.2c0.811-0.146 1.745-0.229 2.698-0.229 5.522 0 10.391 2.797 13.266 7.052 11.249 16.833 25.397 30.726 41.871 41.316 4.959 3.24 7.818 8.155 7.818 13.738 0 0.919-0.078 1.82-0.226 2.697l-9.427 54.786 5.28 2.080 30.24-45.92c2.912-4.312 7.78-7.109 13.302-7.109 0.953 0 1.887 0.083 2.794 0.243 8.849 1.981 19.123 3.123 29.664 3.123s20.815-1.143 30.705-3.311c-0.075 0.006 0.925-0.090 1.948-0.090 5.401 0 10.176 2.676 13.073 6.774l31.554 44.21 5.28-2.24-11.2-53.76c-0.146-0.811-0.229-1.745-0.229-2.698 0-5.522 2.797-10.391 7.052-13.266 16.833-11.249 30.726-25.397 41.316-41.871 3.24-4.959 8.155-7.818 13.738-7.818 0.919 0 1.82 0.078 2.697 0.226l54.786 9.427 2.080-5.28-45.92-30.24c-4.312-2.912-7.109-7.78-7.109-13.302 0-0.953 0.083-1.887 0.243-2.794 1.985-8.849 3.13-19.123 3.13-29.664s-1.145-20.815-3.318-30.703c0.006 0.074-0.090-0.927-0.090-1.95 0-5.401 2.676-10.176 6.774-13.073l44.21-31.554z" />
<glyph unicode="&#xe938;" glyph-name="gear" d="M714.344 962.456c-1.82-0.064-3.665-0.436-5.437-1.156l-29.656-12c-7.072-2.864-11.143-10.293-9.719-17.781l10.688-56.688c-13.936-10.144-26.179-22.132-36.531-35.812l-56.406 11.687c-7.456 1.536-14.993-2.382-17.969-9.406l-12.469-29.469c-2.992-7.008-0.6-15.165 5.688-19.469l47.594-32.469c-2.672-16.944-2.806-34.1-0.406-51.156l-48.188-31.656c-6.368-4.192-8.895-12.288-6.031-19.344l11.969-29.688c2.848-7.072 10.292-11.175 17.812-9.719l56.656 10.688c10.128-13.936 22.132-26.148 35.812-36.5l-11.656-56.438c-1.536-7.472 2.414-14.993 9.438-17.969l29.438-12.469c7.040-2.992 15.165-0.6 19.469 5.688l32.5 47.594c16.944-2.656 34.053-2.79 51.125-0.406l31.688-48.188c3.024-4.608 8.111-7.219 13.375-7.219 2 0 4.017 0.388 5.969 1.188l29.688 11.969c7.072 2.864 11.143 10.324 9.719 17.812l-10.688 56.656c13.936 10.128 26.164 22.132 36.5 35.812l56.406-11.656c7.44-1.488 14.993 2.398 17.969 9.406l12.5 29.469c2.96 7.008 0.585 15.134-5.719 19.438l-47.625 32.5c2.672 16.944 2.806 34.053 0.406 51.125l48.188 31.688c6.368 4.192 8.926 12.272 6.062 19.344l-12 29.688c-2.848 7.072-10.293 11.207-17.781 9.719l-56.688-10.688c-10.128 13.936-22.132 26.164-35.812 36.5l11.656 56.438c1.536 7.472-2.382 14.993-9.406 17.969l-29.438 12.469c-7.008 2.976-15.165 0.617-19.469-5.687l-32.469-47.625c-16.944 2.672-34.084 2.806-51.156 0.406l-31.656 48.188c-3.144 4.764-8.478 7.411-13.938 7.219zM708.781 926.738l30.219-46c3.584-5.456 10.083-8.155 16.531-6.875 19.856 4.016 39.854 3.836 59.438-0.5 6.368-1.376 12.992 1.217 16.688 6.625l30.969 45.406 5.313-2.25-11.125-53.844c-1.328-6.4 1.356-12.962 6.812-16.562 16.736-11.088 30.729-25.366 41.625-42.438 3.52-5.52 10.037-8.357 16.469-7.125l54.062 10.219 2.156-5.344-45.969-30.219c-5.456-3.584-8.202-10.162-6.906-16.562 4.016-19.84 3.883-39.838-0.469-59.438-1.408-6.384 1.186-12.976 6.594-16.656l45.406-30.969-2.25-5.313-53.844 11.125c-6.464 1.296-12.962-1.388-16.562-6.844-11.088-16.736-25.366-30.729-42.438-41.625-5.52-3.52-8.341-10.037-7.125-16.469l10.219-54.062-5.344-2.156-30.219 46c-2.992 4.56-8.063 7.188-13.375 7.188-1.056 0-2.132-0.088-3.188-0.312-19.84-4.016-39.822-3.867-59.438 0.469-6.352 1.392-12.976-1.186-16.656-6.594l-30.969-45.406-5.313 2.25 11.125 53.844c1.328 6.4-1.388 12.962-6.844 16.562-16.736 11.088-30.745 25.382-41.625 42.438-3.504 5.504-10.005 8.325-16.469 7.125l-54.031-10.219-2.156 5.344 45.969 30.219c5.456 3.6 8.202 10.146 6.906 16.562-4.032 19.824-3.867 39.822 0.469 59.438 1.408 6.384-1.217 12.976-6.625 16.656l-45.375 30.969 2.25 5.313 53.812-11.125c6.448-1.28 12.994 1.404 16.594 6.844 11.088 16.736 25.334 30.729 42.406 41.625 5.52 3.52 8.341 10.037 7.125 16.469l-10.187 54.062 5.344 2.156zM784 828.8c-52.944 0-96-43.056-96-96s43.056-96 96-96c52.944 0 96 43.056 96 96s-43.056 96-96 96zM784 800.644c37.424 0 67.844-30.42 67.844-67.844 0-37.408-30.436-67.844-67.844-67.844s-67.844 30.42-67.844 67.844c0 37.408 30.42 67.844 67.844 67.844zM784 764.8c-17.673 0-32-14.327-32-32s14.327-32 32-32c17.673 0 32 14.327 32 32s-14.327 32-32 32zM348.5 684.8c-14.704 0-27.463-9.978-31.031-24.25l-20.5-81.375c-22.4-6.064-43.98-15.021-64.188-26.813l-72.094 43.25c-12.592 7.568-28.694 5.604-39.094-4.812l-27.563-27.594c-10.4-10.4-12.412-26.486-4.844-39.094l43.125-72.062c-11.648-20.224-20.642-41.8-26.594-64.312l-81.469-20.375c-14.272-3.568-24.25-16.342-24.25-31.062v-39c0-14.704 9.978-27.463 24.25-31.031l81.375-20.5c6.064-22.4 15.021-43.98 26.813-64.188l-43.25-72.094c-7.568-12.608-5.604-28.694 4.812-39.094l27.594-27.594c10.416-10.4 26.486-12.396 39.094-4.812l72.062 43.125c20.208-11.632 41.832-20.626 64.344-26.562l20.375-81.5c3.552-14.288 16.311-24.25 31.031-24.25h39c14.704 0 27.463 9.978 31.031 24.25l20.5 81.375c22.4 6.048 43.98 15.037 64.188 26.813l72.094-43.281c12.592-7.536 28.678-5.588 39.094 4.812l27.594 27.594c10.4 10.4 12.38 26.486 4.812 39.094l-43.094 72.062c11.632 20.224 20.595 41.832 26.531 64.344l81.5 20.375c14.272 3.584 24.25 16.342 24.25 31.062v39c0 14.72-9.978 27.494-24.25 31.062l-81.375 20.469c-6.048 22.4-15.037 44.011-26.813 64.219l43.25 72.062c7.568 12.608 5.604 28.694-4.812 39.094l-27.594 27.594c-10.4 10.384-26.47 12.364-39.094 4.812l-72.062-43.094c-20.224 11.632-41.8 20.595-64.312 26.531l-20.375 81.5c-3.568 14.272-16.342 24.25-31.062 24.25h-39zM348.5 652.8h39l20.375-81.531c2.8-11.136 11.532-19.944 22.812-23 19.728-5.328 38.77-13.244 56.594-23.5 10.128-5.84 22.55-5.764 32.406 0.156l72.094 43.25 27.594-27.594-43.25-72.094c-5.936-9.888-5.996-22.31-0.156-32.406 10.256-17.84 18.156-36.881 23.5-56.625 3.056-11.264 11.864-19.997 23-22.781l81.531-20.375v-39l-81.531-20.375c-11.136-2.8-19.944-11.532-23-22.812-5.328-19.728-13.26-38.754-23.5-56.562-5.84-10.128-5.78-22.566 0.156-32.438l43.25-72.094-27.594-27.594-72.062 43.25c-9.888 5.936-22.31 5.996-32.406 0.156-17.84-10.256-36.881-18.156-56.625-23.5-11.264-3.056-20.029-11.864-22.812-23l-20.375-81.531h-39l-20.375 81.5c-2.8 11.152-11.548 19.96-22.812 23-19.744 5.344-38.77 13.275-56.594 23.531-5.024 2.896-10.636 4.312-16.188 4.312-5.664 0-11.274-1.493-16.25-4.469l-72.062-43.25-27.594 27.594 43.25 72.062c5.936 9.856 5.98 22.31 0.156 32.438-10.256 17.824-18.156 36.85-23.5 56.594-3.040 11.296-11.864 20.044-23 22.812l-81.531 20.375v39l81.5 20.375c11.152 2.768 19.96 11.532 23 22.812 5.344 19.744 13.275 38.77 23.531 56.594 5.824 10.128 5.764 22.566-0.156 32.438l-43.25 72.062 27.594 27.594 72.062-43.25c9.872-5.936 22.31-5.996 32.438-0.156 17.824 10.256 36.85 18.156 56.594 23.5 11.28 3.040 20.012 11.848 22.812 23l20.375 81.531zM364.625 508.738c-22.21-0.116-44.421-3.762-65.437-10.938-8.352-2.864-12.817-11.96-9.969-20.312 2.288-6.672 8.5-10.844 15.156-10.844 1.712 0 3.459 0.299 5.187 0.875 35.44 12.128 74.996 12.29 110.5 0.562 8.432-2.736 17.435 1.804 20.219 10.188 2.768 8.384-1.772 17.435-10.156 20.219-21.056 6.952-43.29 10.366-65.5 10.25zM481.031 468.019c-4.064-0.476-7.952-2.497-10.688-5.969-5.472-6.944-4.288-16.997 2.656-22.469 8.336-6.576 16.102-13.969 23.094-21.969 3.168-3.616 7.615-5.437 12.063-5.437 3.744 0 7.507 1.281 10.531 3.937 6.656 5.824 7.324 15.954 1.5 22.594-8.288 9.456-17.519 18.193-27.375 25.969-3.472 2.736-7.717 3.82-11.781 3.344zM368 428.8c-61.76 0-112-50.24-112-112s50.24-112 112-112c61.76 0 112 50.24 112 112s-50.24 112-112 112zM188.5 403.362c-6.226-0.209-12.062-4.058-14.438-10.25-3.168-8.256 0.932-17.519 9.188-20.688l27.188-10.437c1.888-0.72 3.846-1.062 5.75-1.063 6.432 0 12.489 3.913 14.937 10.281 3.168 8.256-0.979 17.488-9.219 20.656l-27.156 10.438c-2.052 0.788-4.175 1.132-6.25 1.062zM368 396.8c44.112 0 80-35.888 80-80s-35.888-80-80-80c-44.112 0-80 35.888-80 80s35.888 80 80 80zM368 348.8c-17.673 0-32-14.327-32-32s14.327-32 32-32c17.673 0 32 14.327 32 32s-14.327 32-32 32zM205.25 332.738l-29.094-0.5c-8.832-0.16-15.879-7.433-15.719-16.281 0.16-8.736 7.296-15.719 16-15.719h0.312l29.094 0.5c8.832 0.16 15.879 7.464 15.719 16.312-0.16 8.832-7.368 15.4-16.312 15.688zM218.219 272.988c-2.077-0.002-4.16-0.417-6.188-1.281l-26.812-11.375c-8.128-3.456-11.925-12.872-8.469-21 2.592-6.096 8.495-9.75 14.719-9.75 2.080 0 4.218 0.417 6.25 1.281l26.781 11.375c8.144 3.456 11.956 12.841 8.5 20.969-2.592 6.096-8.551 9.787-14.781 9.781zM252.438 222.3c-4.094 0-8.192-1.56-11.313-4.688l-20.594-20.594c-6.256-6.256-6.256-16.369 0-22.625 3.12-3.12 7.216-4.687 11.312-4.687s8.193 1.567 11.313 4.687l20.594 20.594c6.256 6.256 6.256 16.369 0 22.625-3.128 3.128-7.218 4.688-11.312 4.688z" />
<glyph unicode="&#xe939;" d="M48 476.8h928v-384h-928v384z" />
<glyph unicode="&#xe93a;" d="M48 156.8h928v-64h-928v64z" />
<glyph unicode="&#xe93b;" d="M48 476.8h928v-64h-928v64z" />
<glyph unicode="&#xe93c;" d="M157.28 746.080l-90.56-90.56c-11.567-11.579-18.72-27.569-18.72-45.23 0-0.018 0-0.035 0-0.053v-101.437c0-17.673 14.327-32 32-32h864c17.673 0 32 14.327 32 32v101.44c0 0.015 0 0.033 0 0.050 0 17.661-7.153 33.65-18.721 45.23l-90.559 90.559c-11.579 11.567-27.569 18.72-45.23 18.72-0.018 0-0.035 0-0.053 0h-618.877c-0.015 0-0.033 0-0.050 0-17.661 0-33.65-7.153-45.23-18.721z" />
<glyph unicode="&#xe93d;" d="M928 684.8l-61.28 61.28c-11.579 11.567-27.569 18.72-45.23 18.72-0.018 0-0.035 0-0.053 0h-618.877c-0.015 0-0.033 0-0.050 0-17.661 0-33.65-7.153-45.23-18.721l-61.279-61.279z" />
<glyph unicode="&#xe93e;" d="M688 508.8h128v-96h-128v96z" />
<glyph unicode="&#xe93f;" d="M208 508.8h128v-96h-128v96z" />
<glyph unicode="&#xe940;" d="M968.64 666.88l-90.56 90.56c-14.47 14.435-34.441 23.36-56.497 23.36-0.050 0-0.1 0-0.151 0h-149.432v18.72c-0.012 13.25-5.391 25.241-14.079 33.919l-29.281 29.281c-8.679 8.689-20.67 14.068-33.918 14.080h-165.442c-13.25-0.012-25.241-5.391-33.919-14.079l-29.281-29.281c-8.689-8.679-14.068-20.67-14.080-33.918v-18.722h-149.44c-0.042 0-0.093 0-0.143 0-22.056 0-42.027-8.926-56.499-23.362l-90.558-90.558c-14.435-14.47-23.36-34.441-23.36-56.497 0-0.050 0-0.1 0-0.151v-485.432c0-26.51 21.49-48 48-48h864c26.51 0 48 21.49 48 48v485.44c0 0.042 0 0.093 0 0.143 0 22.056-8.926 42.027-23.362 56.499zM384 799.52c0 0.027 0 0.060 0 0.093 0 4.395 1.772 8.377 4.641 11.269l29.279 29.279c2.891 2.868 6.872 4.64 11.267 4.64 0.033 0 0.065 0 0.098 0h165.435c0.027 0 0.060 0 0.093 0 4.395 0 8.377-1.772 11.269-4.641l29.279-29.279c2.868-2.891 4.64-6.872 4.64-11.267 0-0.033 0-0.065 0-0.098v-18.715h-256zM78.080 644.16l19.040 19.040c2.407-5.98 8.161-10.125 14.882-10.125 8.74 0 15.843 7.008 15.997 15.711v25.454l40.64 40.64c8.672 8.603 20.616 13.92 33.802 13.92 0.042 0 0.083 0 0.125 0h618.874c13.25-0.012 25.241-5.391 33.919-14.079l40.641-40.481v-25.44c0.238-8.651 7.308-15.573 15.994-15.573 6.725 0 12.48 4.149 14.847 10.026l19.078-18.932c8.699-8.688 14.080-20.697 14.080-33.962 0-0.041 0-0.083 0-0.124v-117.434h-128c0 17.673-14.327 32-32 32h-96c-17.673 0-32-14.327-32-32h-320c0 17.673-14.327 32-32 32h-96c-17.673 0-32-14.327-32-32h-128v117.44c0.012 13.25 5.391 25.241 14.079 33.919zM800 428.8h-96v64h96zM320 428.8h-96v64h96zM960 124.8c0-8.837-7.163-16-16-16h-864c-8.837 0-16 7.163-16 16v336h128v-32c0-17.673 14.327-32 32-32h96c17.673 0 32 14.327 32 32v32h320v-32c0-17.673 14.327-32 32-32h96c17.673 0 32 14.327 32 32v32h128z" />
<glyph unicode="&#xe941;" d="M272 652.8c8.837 0 16 7.163 16 16v32c0 8.837-7.163 16-16 16s-16-7.163-16-16v-32c0-8.837 7.163-16 16-16z" />
<glyph unicode="&#xe942;" d="M192 652.8c8.837 0 16 7.163 16 16v32c0 8.837-7.163 16-16 16s-16-7.163-16-16v-32c0-8.837 7.163-16 16-16z" />
<glyph unicode="&#xe943;" d="M512 652.8c8.837 0 16 7.163 16 16v32c0 8.837-7.163 16-16 16s-16-7.163-16-16v-32c0-8.837 7.163-16 16-16z" />
<glyph unicode="&#xe944;" d="M352 652.8c8.837 0 16 7.163 16 16v32c0 8.837-7.163 16-16 16s-16-7.163-16-16v-32c0-8.837 7.163-16 16-16z" />
<glyph unicode="&#xe945;" d="M432 652.8c8.837 0 16 7.163 16 16v32c0 8.837-7.163 16-16 16s-16-7.163-16-16v-32c0-8.837 7.163-16 16-16z" />
<glyph unicode="&#xe946;" d="M592 652.8c8.837 0 16 7.163 16 16v32c0 8.837-7.163 16-16 16s-16-7.163-16-16v-32c0-8.837 7.163-16 16-16z" />
<glyph unicode="&#xe947;" d="M832 652.8c8.837 0 16 7.163 16 16v32c0 8.837-7.163 16-16 16s-16-7.163-16-16v-32c0-8.837 7.163-16 16-16z" />
<glyph unicode="&#xe948;" d="M672 652.8c8.837 0 16 7.163 16 16v32c0 8.837-7.163 16-16 16s-16-7.163-16-16v-32c0-8.837 7.163-16 16-16z" />
<glyph unicode="&#xe949;" d="M752 652.8c8.837 0 16 7.163 16 16v32c0 8.837-7.163 16-16 16s-16-7.163-16-16v-32c0-8.837 7.163-16 16-16z" />
<glyph unicode="&#xe94a;" d="M784 172.8h-672c-8.837 0-16-7.163-16-16s7.163-16 16-16h672c8.837 0 16 7.163 16 16s-7.163 16-16 16z" />
<glyph unicode="&#xe94b;" d="M832 156.8c0-8.837 7.163-16 16-16h64c8.837 0 16 7.163 16 16s-7.163 16-16 16h-64c-8.837 0-16-7.163-16-16z" />
<glyph unicode="&#xe94c;" glyph-name="bag" d="M429.25 876.8c-12.816 0-24.866-4.99-33.938-14.062l-29.25-29.25c-9.072-9.056-14.062-21.122-14.062-33.938v-18.75h-149.5c-21.36 0-41.458-8.334-56.562-23.438l-90.5-90.5c-15.104-15.104-23.438-35.186-23.438-56.562v-485.5c0-26.464 21.536-48 48-48h864c26.464 0 48 21.536 48 48v485.5c0 21.376-8.334 41.458-23.438 56.562l-90.5 90.5c-15.104 15.104-35.202 23.438-56.562 23.438h-149.5v18.75c0 12.816-4.99 24.881-14.062 33.938l-29.25 29.25c-9.056 9.072-21.106 14.062-33.938 14.062h-165.5zM429.25 844.8h165.5c4.272 0 8.32-1.663 11.344-4.688l29.219-29.25c2.96-2.992 4.688-7.104 4.688-11.312v-18.75h-256v18.75c0 4.208 1.712 8.336 4.688 11.312l29.25 29.25c3.024 3.024 7.040 4.688 11.312 4.688zM202.5 748.8h619c12.64 0 24.994-5.118 33.938-14.062l40.562-40.562v-25.375c0-8.848 7.168-16 16-16 6.88 0 12.619 4.388 14.875 10.5l19.062-19.062c9.072-9.072 14.062-21.106 14.062-33.938v-117.5h-128c0 17.648-14.352 32-32 32h-96c-17.648 0-32-14.352-32-32h-320c0 17.648-14.352 32-32 32h-96c-17.648 0-32-14.352-32-32h-128v117.5c0 12.832 5.007 24.882 14.062 33.938l19.031 19.062c2.272-6.112 8.026-10.5 14.906-10.5 8.832 0 16 7.152 16 16v25.375l40.562 40.562c8.928 8.944 21.298 14.062 33.938 14.062zM192 716.8c-8.832 0-16-7.152-16-16v-32c0-8.848 7.168-16 16-16s16 7.152 16 16v32c0 8.848-7.168 16-16 16zM272 716.8c-8.832 0-16-7.152-16-16v-32c0-8.848 7.168-16 16-16s16 7.152 16 16v32c0 8.848-7.168 16-16 16zM352 716.8c-8.832 0-16-7.152-16-16v-32c0-8.848 7.168-16 16-16s16 7.152 16 16v32c0 8.848-7.168 16-16 16zM432 716.8c-8.832 0-16-7.152-16-16v-32c0-8.848 7.168-16 16-16s16 7.152 16 16v32c0 8.848-7.168 16-16 16zM512 716.8c-8.832 0-16-7.152-16-16v-32c0-8.848 7.168-16 16-16s16 7.152 16 16v32c0 8.848-7.168 16-16 16zM592 716.8c-8.832 0-16-7.152-16-16v-32c0-8.848 7.168-16 16-16s16 7.152 16 16v32c0 8.848-7.168 16-16 16zM672 716.8c-8.832 0-16-7.152-16-16v-32c0-8.848 7.168-16 16-16s16 7.152 16 16v32c0 8.848-7.168 16-16 16zM752 716.8c-8.832 0-16-7.152-16-16v-32c0-8.848 7.168-16 16-16s16 7.152 16 16v32c0 8.848-7.168 16-16 16zM832 716.8c-8.832 0-16-7.152-16-16v-32c0-8.848 7.168-16 16-16s16 7.152 16 16v32c0 8.848-7.168 16-16 16zM224 492.8h96l0.031-64h-96.031v64zM704 492.8h96l0.031-64h-96.031v64zM64 460.8h128v-32c0-17.648 14.352-32 32-32h96c17.648 0 32 14.352 32 32v32h320v-32c0-17.648 14.352-32 32-32h96c17.648 0 32 14.352 32 32v32h128v-336c0-8.832-7.184-16-16-16h-864c-8.816 0-16 7.168-16 16v336zM112 172.8c-8.832 0-16-7.152-16-16s7.168-16 16-16h672c8.832 0 16 7.152 16 16s-7.168 16-16 16h-672zM848 172.8c-8.832 0-16-7.152-16-16s7.168-16 16-16h64c8.832 0 16 7.152 16 16s-7.168 16-16 16h-64z" />
</font>
</defs>
</svg>
